<svg width="16" height="16" viewBox="0 0 16 16" fill="none" xmlns="http://www.w3.org/2000/svg">
<path d="M4.28004 11.8199C2.79337 10.8466 1.83337 9.3799 1.83337 8.09323C1.83337 5.90656 4.59337 3.22656 8.00004 3.22656C9.39337 3.22656 10.6867 3.67323 11.7267 4.36656" stroke="#C6CEDD" stroke-width="1.2" stroke-linecap="round" stroke-linejoin="round"/>
<path d="M13.2332 5.74023C13.8272 6.49357 14.1732 7.3269 14.1732 8.09357C14.1732 10.2802 11.4066 12.9602 7.99992 12.9602C7.39325 12.9602 6.80058 12.8736 6.24658 12.7202" stroke="#C6CEDD" stroke-width="1.2" stroke-linecap="round" stroke-linejoin="round"/>
<path d="M6.51048 9.57812C6.11381 9.18545 5.89181 8.65012 5.89381 8.09212C5.89115 6.92878 6.83248 5.98345 7.99648 5.98145C8.55648 5.98012 9.09381 6.20212 9.48981 6.59812" stroke="#C6CEDD" stroke-width="1.2" stroke-linecap="round" stroke-linejoin="round"/>
<path d="M10.073 8.46631C9.91705 9.32764 9.24305 10.003 8.38171 10.161" stroke="#C6CEDD" stroke-width="1.2" stroke-linecap="round" stroke-linejoin="round"/>
<path d="M13.2612 2.8335L2.74524 13.3495" stroke="#C6CEDD" stroke-width="1.2" stroke-linecap="round" stroke-linejoin="round"/>
</svg>
